<svg width="40" height="40" viewBox="0 0 40 40" fill="none" xmlns="http://www.w3.org/2000/svg">
<circle cx="20" cy="20" r="20" fill="#459D8C"/>
<path d="M23.5974 23.4394C24.7599 22.6546 25.643 21.5102 26.1158 20.1756C26.5887 18.8411 26.6262 17.3873 26.2229 16.0294C25.8196 14.6715 24.9968 13.4816 23.8764 12.6359C22.756 11.7902 21.3974 11.3335 20.0018 11.3335C18.6061 11.3335 17.2475 11.7902 16.1271 12.6359C15.0067 13.4816 14.1839 14.6715 13.7806 16.0294C13.3773 17.3873 13.4148 18.8411 13.8877 20.1756C14.3605 21.5102 15.2436 22.6546 16.4061 23.4394C14.4244 24.1823 12.7116 25.5198 11.4947 27.2746C11.4283 27.3691 11.381 27.4761 11.3555 27.5892C11.3299 27.7024 11.3266 27.8196 11.3458 27.9341C11.365 28.0486 11.4063 28.1581 11.4673 28.2563C11.5283 28.3545 11.6078 28.4395 11.7012 28.5063C11.7946 28.5731 11.9001 28.6206 12.0117 28.6458C12.1232 28.671 12.2385 28.6736 12.3511 28.6533C12.4636 28.6331 12.571 28.5904 12.6673 28.5278C12.7635 28.4652 12.8466 28.3838 12.9117 28.2884C13.7113 27.1323 14.773 26.1887 16.0069 25.5373C17.2409 24.8859 18.6109 24.5458 20.0014 24.5457C21.3919 24.5457 22.762 24.8857 23.996 25.537C25.23 26.1883 26.2917 27.1319 27.0914 28.288C27.1568 28.3827 27.24 28.4633 27.3361 28.5253C27.4323 28.5873 27.5395 28.6295 27.6517 28.6493C27.7639 28.6692 27.8788 28.6664 27.9899 28.641C28.101 28.6157 28.2061 28.5684 28.2992 28.5018C28.3923 28.4351 28.4716 28.3505 28.5325 28.2527C28.5934 28.1549 28.6347 28.0459 28.6541 27.9319C28.6736 27.8179 28.6707 27.7011 28.6456 27.5882C28.6206 27.4753 28.5739 27.3685 28.5082 27.274C27.2915 25.5195 25.5789 24.1823 23.5974 23.4394ZM15.2362 17.9414C15.2362 16.9834 15.5157 16.047 16.0393 15.2506C16.563 14.4541 17.3072 13.8333 18.178 13.4667C19.0488 13.1002 20.007 13.0042 20.9314 13.1911C21.8558 13.378 22.705 13.8393 23.3714 14.5166C24.0379 15.194 24.4918 16.057 24.6756 16.9965C24.8595 17.936 24.7651 18.9098 24.4045 19.7948C24.0438 20.6798 23.433 21.4362 22.6493 21.9684C21.8656 22.5006 20.9442 22.7847 20.0017 22.7847C18.7383 22.7832 17.527 22.2725 16.6336 21.3645C15.7402 20.4565 15.2376 19.2254 15.2362 17.9414Z" fill="white"/>
</svg>
