<svg width="30" height="31" viewBox="0 0 30 31" fill="none" xmlns="http://www.w3.org/2000/svg">
<path d="M27.5 30.9998H27.4997L19.9988 30.9989C19.336 30.998 18.7007 30.7328 18.2321 30.2613C17.7634 29.7898 17.4998 29.1506 17.4991 28.4839V20.9388H12.4991V28.4838C12.4983 29.1505 12.2347 29.7897 11.7661 30.2611C11.2975 30.7326 10.6621 30.9979 9.99938 30.9987L2.50031 31C2.17198 31 1.84686 30.935 1.54351 30.8087C1.24016 30.6823 0.964523 30.497 0.732344 30.2635C0.500164 30.0299 0.315988 29.7527 0.190331 29.4475C0.064675 29.1424 -2.56509e-09 28.8153 0 28.485V13.9516C0.000272393 13.6012 0.0731847 13.2547 0.21408 12.9342C0.354976 12.6138 0.560757 12.3264 0.818281 12.0905L13.3172 0.657812C13.7763 0.23475 14.3763 5.82023e-05 14.9989 1.08239e-08C15.6215 -5.81807e-05 16.2216 0.234522 16.6808 0.657498L29.1819 12.0906C29.4393 12.3266 29.645 12.6139 29.7859 12.9343C29.9268 13.2548 29.9997 13.6012 30 13.9516V28.485C30 29.152 29.7366 29.7917 29.2678 30.2634C28.7989 30.735 28.163 31 27.5 31V30.9998ZM12.4991 18.4238H17.4991C18.1619 18.4246 18.7973 18.6898 19.266 19.1613C19.7347 19.6328 19.9983 20.272 19.9991 20.9388V28.4853L27.5 28.485V13.9516L14.9991 2.51859L2.5 13.9514V28.4849L9.99906 28.4839V20.9388C9.99981 20.272 10.2634 19.6328 10.7321 19.1613C11.2008 18.6898 11.8363 18.4246 12.4991 18.4238V18.4238Z" fill="#459D8C"/>
</svg>
